<?xml version="1.0" encoding="UTF-8"?><svg id="Layer_1" xmlns="http://www.w3.org/2000/svg" viewBox="0 0 2060 795.67"><defs><style>.cls-1{fill:#255979;}</style></defs><g><path class="cls-1" d="m603.45,243.48h-76.53l-83.32,309.06h243.17l-83.32-309.06Zm-99.03,262.51l58.18-215.8h5.18l58.18,215.8h-121.53Z"/><path class="cls-1" d="m440.48,290.19h-147.63v83.78h124.04v46.21h-124.04v132.36h-50.4V243.48h198.03v46.71Z"/><path class="cls-1" d="m818.93,556.94c-63.97,0-107.58-30.8-107.58-99.69h49.89c0,42.65,17.64,54.33,57.69,54.33h2.38c38.18,0,55.49-11.34,55.49-42.14,0-36.22-43.1-44.34-76.7-55.68-53.62-18.11-83.66-42.14-82.64-91.57.85-54.84,42.25-83.44,95.87-83.44h2.71c60.92,0,103.17,30.8,103.17,100.2h-49.89c0-42.99-16.29-54.84-53.11-54.84h-2.71c-29.53,0-45.48,11.85-45.48,38.08,0,31.31,27.15,40.79,58.2,50.27,57.19,17.26,100.8,39.44,100.8,96.98s-43.1,87.5-105.38,87.5h-2.71Z"/></g><g><path class="cls-1" d="m1097.22,257.14h-43.49v24.6h36.47v13.67h-36.47v38.95h-14.9v-90.88h58.22v13.67h.17Z"/><path class="cls-1" d="m1175.81,257.14h-42.46v24.6h32.7v13.67h-32.7v25.11h42.46v13.67h-57.36v-90.71h57.36v13.67Z"/><path class="cls-1" d="m1225.8,243.47c18.15,0,30.99,11.1,30.99,33.31v24.26c0,22.21-12.84,33.31-30.99,33.31h-30.48v-90.88h30.48Zm16.09,33.31c0-15.2-4.97-19.65-16.09-19.65h-15.58v63.38h15.58c11.13,0,16.09-4.61,16.09-19.65v-24.26.17Z"/><path class="cls-1" d="m1335.9,257.14h-42.46v24.6h32.7v13.67h-32.7v25.11h42.46v13.67h-57.36v-90.71h57.36v13.67Z"/><path class="cls-1" d="m1418.26,272.51c0,15.89-7.02,25.11-20.55,27.67v1.02l20.2,33.14h-16.44l-20.03-33.31h-8.9v33.31h-14.73v-90.88h30.65c19.69,0,29.79,9.4,29.79,28.53v.51h0Zm-14.55-.51c0-10.93-3.25-14.86-15.24-14.86h-15.92v30.24h15.92c11.99,0,15.24-4.1,15.24-14.86v-.51Z"/><path class="cls-1" d="m1485.55,334.36l-6.34-25.8h-26.71l-6.51,25.8h-15.75l24.48-90.88h22.26l23.97,90.88h-15.41Zm-29.62-39.46h20.03l-9.25-37.75h-1.54l-9.25,37.75h0Z"/><path class="cls-1" d="m1579.2,243.47v13.67h-26.2v77.21h-14.89v-77.21h-26.2v-13.67h67.29Z"/><path class="cls-1" d="m1654.54,257.14h-21.4v63.38h21.4v13.67h-57.36v-13.67h21.23v-63.38h-21.23v-13.67h57.36v13.67Z"/><path class="cls-1" d="m1705.4,335.55c-18.15,0-30.99-11.1-30.99-33.31v-26.99c0-22.21,12.84-33.31,30.99-33.31h.86c18.15,0,30.99,11.1,30.99,33.31v26.99c0,22.21-12.84,33.31-30.99,33.31h-.86Zm.86-13.32c11.13,0,16.09-4.95,16.09-19.99v-26.99c0-15.03-4.97-19.99-16.09-19.99h-.86c-11.13,0-16.09,4.95-16.09,19.99v26.99c0,15.03,4.97,19.99,16.09,19.99h.86Z"/><path class="cls-1" d="m1756.25,334.36v-90.88h20.89l22.26,67.65h1.54v-67.65h14.21v90.88h-20.89l-22.26-67.65h-1.54v67.65h-14.21Z"/><path class="cls-1" d="m1057.06,425.24c-10.62,0-18.15-6.49-18.15-19.47v-15.72c0-12.98,7.53-19.47,18.15-19.47h.51c10.62,0,18.15,6.49,18.15,19.47v15.72c0,12.98-7.53,19.47-18.15,19.47h-.51Zm.51-7.86c6.51,0,9.42-2.9,9.42-11.62v-15.72c0-8.71-2.91-11.62-9.42-11.62h-.51c-6.51,0-9.42,2.9-9.42,11.62v15.72c0,8.71,2.91,11.62,9.42,11.62h.51Z"/><path class="cls-1" d="m1122.47,379.46h-25.34v14.35h21.23v7.86h-21.23v22.72h-8.56v-52.96h33.9v8.03h0Z"/><path class="cls-1" d="m1245.33,443.51l-6.34-25.8h-26.71l-6.51,25.8h-15.75l24.48-90.88h22.26l23.97,90.88h-15.41Zm-29.62-39.46h20.03l-9.25-37.75h-1.54l-9.25,37.75Z"/><path class="cls-1" d="m1273.93,443.51v-90.88h16.61l14.21,36.56h1.37l14.21-36.56h16.61v90.88h-14.04v-65.77h-1.54l-12.84,31.94h-6.85l-12.67-31.94h-1.54v65.77h-14.04.51Z"/><path class="cls-1" d="m1415.87,366.3h-42.46v24.6h32.7v13.67h-32.7v25.11h42.46v13.67h-57.36v-90.71h57.36v13.67Z"/><path class="cls-1" d="m1498.39,381.67c0,15.89-7.02,25.11-20.55,27.67v1.02l20.2,33.14h-16.44l-20.03-33.31h-8.9v33.31h-14.73v-90.88h30.65c19.69,0,29.79,9.4,29.79,28.53v.51h0Zm-14.55-.51c0-10.93-3.25-14.86-15.24-14.86h-15.92v30.24h15.92c11.99,0,15.24-4.1,15.24-14.86v-.51h0Z"/><path class="cls-1" d="m1574.41,366.3h-21.4v63.38h21.4v13.67h-57.36v-13.67h21.23v-63.38h-21.23v-13.67h57.36v13.67Z"/><path class="cls-1" d="m1625.44,444.88c-18.15,0-30.99-11.1-30.99-33.31v-26.99c0-22.21,12.84-33.31,30.99-33.31h.86c18.15,0,30.99,11.1,30.99,33.31h-14.9c0-15.03-4.97-19.99-16.09-19.99h-.86c-11.13,0-16.09,4.95-16.09,19.99v26.99c0,15.03,4.97,19.99,16.09,19.99h.86c11.13,0,16.09-4.95,16.09-19.99h14.9c0,22.21-12.85,33.31-30.99,33.31h-.86Z"/><path class="cls-1" d="m1725.77,443.51l-6.34-25.8h-26.71l-6.5,25.8h-15.75l24.48-90.88h22.26l23.97,90.88h-15.41Zm-29.62-39.46h20.03l-9.25-37.75h-1.54l-9.25,37.75h0Z"/><path class="cls-1" d="m1756.42,443.51v-90.88h20.89l22.09,67.65h1.54v-67.65h14.21v90.88h-20.72l-22.26-67.65h-1.54v67.65h-14.21Z"/><path class="cls-1" d="m1068.97,554.13c-18.83,0-31.68-9.05-31.68-29.38h14.72c0,12.47,5.14,16.06,16.95,16.06h.68c11.3,0,16.27-3.25,16.27-12.47,0-10.59-12.67-12.98-22.6-16.4-15.75-5.3-24.66-12.47-24.31-26.99.17-16.06,12.5-24.43,28.25-24.43h.86c17.81,0,30.31,9.05,30.31,29.38h-14.73c0-12.64-4.79-16.06-15.58-16.06h-.86c-8.73,0-13.36,3.42-13.36,11.27,0,9.23,8.05,11.96,17.12,14.86,16.78,5.12,29.62,11.62,29.62,28.53s-12.67,25.8-30.99,25.8h-.68v-.17Z"/><path class="cls-1" d="m1147.73,554.06c-18.15,0-30.99-11.1-30.99-33.31v-26.99c0-22.21,12.84-33.31,30.99-33.31h.86c18.15,0,30.99,11.1,30.99,33.31h-14.9c0-15.03-5.14-19.99-16.09-19.99h-.86c-11.13,0-16.09,4.95-16.09,19.99v26.99c0,15.03,5.14,19.99,16.09,19.99h.86c11.13,0,16.09-4.95,16.09-19.99h14.9c0,22.21-12.84,33.31-30.99,33.31h-.86Z"/><path class="cls-1" d="m1255.26,475.46h-21.4v63.38h21.4v13.67h-57.36v-13.67h21.23v-63.38h-21.23v-13.67h57.36v13.67Z"/><path class="cls-1" d="m1336.93,475.46h-42.46v24.6h32.7v13.67h-32.7v25.11h42.46v13.67h-57.36v-90.88h57.36v13.84Z"/><path class="cls-1" d="m1356.28,552.68v-90.88h20.89l22.09,67.65h1.54v-67.65h14.21v90.88h-20.72l-22.26-67.65h-1.54v67.65h-14.21Z"/><path class="cls-1" d="m1499.24,461.8v13.67h-26.2v77.21h-14.9v-77.21h-26.2v-13.67h67.29Z"/><path class="cls-1" d="m1574.41,475.46h-21.4v63.38h21.4v13.67h-57.36v-13.67h21.23v-63.38h-21.23v-13.67h57.36v13.67Z"/><path class="cls-1" d="m1625.78,554.04c-18.83,0-31.67-9.05-31.67-29.38h14.72c0,12.47,5.14,16.06,16.95,16.06h.68c11.13,0,16.27-3.25,16.27-12.47,0-10.59-12.67-12.98-22.6-16.4-15.76-5.3-24.49-12.47-24.31-26.99.34-16.06,12.5-24.43,28.25-24.43h.86c17.98,0,30.31,9.05,30.31,29.38h-14.72c0-12.64-4.8-16.06-15.58-16.06h-.86c-8.73,0-13.36,3.42-13.36,11.27,0,9.23,8.05,11.96,17.12,14.86,16.78,5.12,29.62,11.62,29.62,28.53s-12.67,25.8-30.99,25.8h-.68v-.17Z"/><path class="cls-1" d="m1739.3,461.8v13.67h-26.2v77.21h-14.9v-77.21h-26.2v-13.67h67.29Z"/><path class="cls-1" d="m1785.87,554.04c-18.83,0-31.68-9.05-31.68-29.38h14.73c0,12.47,5.14,16.06,16.95,16.06h.68c11.13,0,16.27-3.25,16.27-12.47,0-10.59-12.67-12.98-22.6-16.4-15.76-5.3-24.49-12.47-24.31-26.99.34-16.06,12.5-24.43,28.25-24.43h.86c17.98,0,30.31,9.05,30.31,29.38h-14.73c0-12.64-4.79-16.06-15.58-16.06h-.86c-8.74,0-13.36,3.42-13.36,11.27,0,9.23,8.05,11.96,17.12,14.86,16.78,5.12,29.62,11.62,29.62,28.53s-12.67,25.8-30.99,25.8h-.68v-.17Z"/></g></svg>